# xmcd
#
# Track frame offsets: 
#        150
#        15004
#        37711
#        54821
#        96453
#        112380
#        127872
#        144484
#        167210
#        186698
#        206594
#
# Disc length: 3287 seconds
#
# Revision: 2
# Processed by: cddbd v1.5.2PL0 Copyright (c) Steve Scherf et al.
# Submitted via: ExactAudioCopyFreeDBPlugin 1.0
#
DISCID=920cd50b
DTITLE=Cuby and the Blizzards - Live In Het Oude Luxor [2CD] [CD1]
DYEAR=2005
DGENRE=Blues
TTITLE0=Go down sunshine (Live)
TTITLE1=Simple man (Live)
TTITLE2=For real (Live)
TTITLE3=Too blind to see (Live)
TTITLE4=Just for fun (Live)
TTITLE5=Sugar mama (Live)
TTITLE6=Nighttrain (Live)
TTITLE7=The sky is crying (Live)
TTITLE8=No news, good news (Live)
TTITLE9=Window of my eyes (Live)
TTITLE10=Dust my broom (Live)
EXTD=
EXTT0=
EXTT1=
EXTT2=
EXTT3=
EXTT4=
EXTT5=
EXTT6=
EXTT7=
EXTT8=
EXTT9=
EXTT10=
PLAYORDER=
